<?xml version="1.0" encoding="utf-8"?>
<!-- Generator: Adobe Illustrator 18.0.0, SVG Export Plug-In . SVG Version: 6.00 Build 0)  -->
<!DOCTYPE svg PUBLIC "-//W3C//DTD SVG 1.1//EN" "http://www.w3.org/Graphics/SVG/1.1/DTD/svg11.dtd">
<svg version="1.1" id="Layer_1" xmlns="http://www.w3.org/2000/svg" xmlns:xlink="http://www.w3.org/1999/xlink" x="0px" y="0px"
	 viewBox="0 0 140.4 41.6" enable-background="new 0 0 140.4 41.6" xml:space="preserve">
<g>
	<path fill="#FFFFFF" d="M0.4,19.4C0.3,19.4,0.3,19.4,0.4,19.4l-0.1-1.3c0-0.1,0-0.1,0.1-0.1h5.8c0,0,0.1,0,0.1-0.1l1.4-1.4
		c0.1,0,0.1-0.1,0.1-0.1V15c0,0,0-0.1-0.1-0.1l-7.6-4.2c-0.1,0-0.1,0-0.1-0.1V8.1C0,8.1,0,8,0.1,8l2.3-2.3c0,0,0.1-0.1,0.1-0.1h6.1
		h0.1v0.1V7c0,0.1,0,0.1-0.1,0.1H3.1C3,7.1,3,7.1,2.9,7.1L1.5,8.6c0,0-0.1,0.1-0.1,0.1v1c0,0.1,0,0.1,0.1,0.1L9.2,14
		c0.1,0,0.1,0.1,0.1,0.2V17c0,0.1,0,0.1-0.1,0.2l-2.3,2.2c0,0-0.1,0.1-0.1,0.1L0.4,19.4L0.4,19.4z"/>
	<path fill="#FFFFFF" d="M14.3,19.3c-0.1,0-0.1,0-0.1-0.1L12.1,17c0,0-0.1-0.1-0.1-0.1V0.1V0h0.1h1.3c0.1,0,0.1,0,0.1,0.1v16.2
		c0,0.1,0,0.1,0.1,0.2l1.3,1.4c0,0,0.1,0.1,0.1,0.1h1.4c0.1,0,0.1,0,0.1,0.1v1.3c0,0.1,0,0.1-0.1,0.1L14.3,19.3L14.3,19.3z"/>
	<path fill="#FFFFFF" d="M28,18.1c0.1,0,0.1,0,0.1-0.1l3.1-5.3c0,0,0-0.1,0-0.2l-3.1-5.3c0,0,0-0.1-0.1-0.1h-6.1
		c-0.1,0-0.1,0-0.1,0.1l-3.1,5.3c0,0.1,0,0.1,0,0.2l3.1,5.3c0,0.1,0,0.1,0.1,0.1H28L28,18.1z M21.1,19.5c-0.1,0-0.1,0-0.2-0.1
		l-3.8-6.7c0,0,0-0.1,0-0.2l3.8-6.7c0,0,0.1-0.1,0.2-0.1h7.7c0.1,0,0.1,0,0.1,0.1l3.8,6.7c0,0.1,0,0.1,0,0.2L29,19.4
		c0,0.1-0.1,0.1-0.1,0.1H21.1L21.1,19.5z"/>
	<path fill="#FFFFFF" d="M37.2,6.8C37.1,6.8,37.1,6.9,37.2,6.8l-0.1,9.3c0,0.1,0,0.1,0.1,0.2l1.5,1.6c0,0.1,0.1,0.1,0.1,0.1h1.4
		c0.1,0,0.1,0,0.1,0.1v1.3c0,0.1,0,0.1-0.1,0.1h-2c-0.1,0-0.1,0-0.2-0.1l-2.3-2.5c0,0-0.1-0.1-0.1-0.2V6.9c0-0.1,0-0.1-0.1-0.1h-2.3
		c-0.1,0-0.1,0-0.1-0.1V5.5c0,0,0-0.1,0.1-0.1h2.3c0.1,0,0.1,0,0.1-0.1V2c0-0.1,0-0.1,0.1-0.1H37C37,2,37.1,2,37.1,2v3.3
		c0,0.1,0,0.1,0.1,0.1h3.3c0.1,0,0.1,0,0.1,0.1v1.3c0,0.1,0,0.1-0.1,0.1L37.2,6.8L37.2,6.8z"/>
	<path fill="#FFFFFF" d="M51.9,11.7c0.1,0,0.1,0,0.2-0.1l0.1-0.1c0,0,0.1-0.1,0.1-0.1V8.8c0-0.1,0-0.1-0.1-0.2l-1.6-1.5
		c0,0-0.1-0.1-0.1-0.1h-3.9c-0.1,0-0.1,0-0.1,0.1l-1.7,1.7c0,0-0.1,0.1-0.1,0.2v2.6c0,0.1,0,0.1,0.1,0.1L51.9,11.7L51.9,11.7z
		 M45.5,19.3c-0.1,0-0.1,0-0.2-0.1l-2.1-2.1c0,0-0.1-0.1-0.1-0.2V8.4c0-0.1,0-0.1,0.1-0.2l2.5-2.5c0,0,0.1-0.1,0.2-0.1H51
		c0.1,0,0.1,0,0.1,0.1l2.4,2.4c0,0,0.1,0.1,0.1,0.2V12c0,0.1,0,0.1-0.1,0.2l-1.1,0.9c0,0-0.1,0.1-0.1,0.1h-7.6c-0.1,0-0.1,0-0.1,0.1
		v3.2c0,0.1,0,0.1,0.1,0.2l1.3,1.3c0,0,0.1,0.1,0.2,0.1h4.2c0,0,0.1,0,0.2-0.1l1.1-1.2c0,0,0.1,0,0.1,0l0.9,0.9c0,0,0,0.1,0,0.1
		L51,19.2c0,0-0.1,0.1-0.1,0.1L45.5,19.3L45.5,19.3z"/>
	<path fill="#FFFFFF" d="M66.9,7.7c0,0,0.1,0.1,0.1,0.1v11.3c0,0.1,0,0.1-0.1,0.1h-1.3c-0.1,0-0.1,0-0.1-0.1V8.4
		c0-0.1,0-0.1-0.1-0.2l-1.6-1.7c0-0.1-0.1-0.1-0.2-0.1h-1.9c-0.1,0-0.1,0-0.1,0.1l-3.9,2c0,0,0,0-0.1,0l0,0c0,0,0,0,0,0s0,0,0,0l0,0
		c0,0-0.1,0.1-0.1,0.1v10.5c0,0.1,0,0.1-0.1,0.1h-1.3c-0.1,0-0.1,0-0.1-0.1v-14c0-0.1,0-0.1,0.1-0.1h1.3c0.1,0,0.1,0,0.1,0.1v1.6
		c0,0,0,0.1,0.1,0.1L61.3,5c0,0,0.1-0.1,0.2-0.1h2.9c0.1,0,0.1,0,0.2,0.1L66.9,7.7L66.9,7.7z"/>
	<path fill="#FFFFFF" d="M88,7.9c0,0,0.1,0.1,0.1,0.2L88,19.2c0,0.1,0,0.1-0.1,0.1h-1.3c0,0-0.1,0-0.1-0.1l0.1-10.6
		c0-0.1,0-0.1-0.1-0.1l-1.4-1.4c0,0-0.1-0.1-0.2-0.1l-1.9,0.1c-0.1,0-0.1,0-0.2,0l-3,1.6c-0.1,0-0.1,0.1-0.1,0.1l-0.1,10.4
		c0,0.1,0,0.1-0.1,0.1h-1.3c-0.1,0-0.1,0-0.1-0.1l0.1-10.4c0-0.1,0-0.1-0.1-0.2l-1.4-1.4c0,0-0.1-0.1-0.2-0.1l-1.9,0.1
		c-0.1,0-0.1,0-0.1,0l-2.9,1.4c-0.1,0-0.1,0-0.1,0.1v10.3c0,0.1,0,0.1-0.1,0.1h-1.3c-0.1,0-0.1,0-0.1-0.1v-14c0-0.1,0-0.1,0.1-0.1
		h1.3c0,0,0.1,0,0.1,0.1v1.8c0,0.1,0,0.1,0.1,0.1l2.6-1.3c0,0,0.1,0,0.1,0c0,0,0.1,0,0.1,0l2.9-0.1c0.1,0,0.1,0,0.2,0.1l1.6,1.6
		c0,0.1,0.1,0.1,0.1,0l3.3-1.7c0,0,0.1,0,0.1,0l2.9-0.1c0.1,0,0.1,0,0.2,0.1L88,7.9L88,7.9z"/>
	<path fill="#FFFFFF" d="M102.6,17.9C102.6,17.9,102.7,17.8,102.6,17.9l-4.9-8.6c0,0-0.1,0-0.1,0l-4.9,8.5c0,0,0,0.1,0.1,0.1H102.6
		L102.6,17.9z M90.2,19.3C90.2,19.3,90.2,19.3,90.2,19.3l7.4-12.9c0,0,0.1,0,0.1,0l7.4,12.8c0,0,0,0.1-0.1,0.1H90.2L90.2,19.3z"/>
	<path fill="#FFFFFF" d="M109.8,12.4C109.7,12.4,109.7,12.4,109.8,12.4l-1.2,1.5c0,0-0.1,0.1-0.1,0.1v5.2c0,0.1,0,0.1-0.1,0.1h-1.3
		c-0.1,0-0.1,0-0.1-0.1V0.2c0-0.1,0-0.1,0.1-0.1h1.3c0.1,0,0.1,0,0.1,0.1v11.3c0,0.1,0,0.1,0.1,0l0.2-0.3c0,0,0,0,0-0.1
		c0,0,0,0,0.1-0.1l6.9-5.4l0.1-0.1l0,0c0,0,0,0,0,0.1l0.8,1c0,0,0,0.1,0,0.1l-5.9,4.5c0,0,0,0.1,0,0.1l6.9,7.1c0,0,0,0.1,0,0.1
		l-0.9,0.9c0,0-0.1,0-0.1,0L109.8,12.4L109.8,12.4z"/>
	<path fill="#FFFFFF" d="M129.1,11.7c0.1,0,0.1,0,0.1-0.1l0.1-0.1c0,0,0.1-0.1,0.1-0.1V8.8c0-0.1,0-0.1-0.1-0.2l-1.6-1.5
		c0,0-0.1-0.1-0.1-0.1h-3.9c-0.1,0-0.1,0-0.1,0.1L122,8.8c0,0-0.1,0.1-0.1,0.2v2.6c0,0.1,0,0.1,0.1,0.1L129.1,11.7L129.1,11.7z
		 M122.8,19.3c-0.1,0-0.1,0-0.1-0.1l-2.1-2.1c0,0-0.1-0.1-0.1-0.2V8.4c0-0.1,0-0.1,0.1-0.2l2.5-2.5c0,0,0.1-0.1,0.1-0.1h5.1
		c0.1,0,0.1,0,0.1,0.1l2.4,2.4c0,0,0.1,0.1,0.1,0.2V12c0,0.1,0,0.1-0.1,0.2l-1.1,0.9c0,0-0.1,0.1-0.2,0.1H122c-0.1,0-0.1,0-0.1,0.1
		v3.2c0,0.1,0,0.1,0.1,0.2l1.3,1.3c0,0,0.1,0.1,0.1,0.1h4.2c0,0,0.1,0,0.1-0.1l1.1-1.2c0,0,0.1,0,0.1,0l0.9,0.9c0,0,0,0.1,0,0.1
		l-1.6,1.6c0,0-0.1,0.1-0.1,0.1L122.8,19.3L122.8,19.3z"/>
	<path fill="#FFFFFF" d="M140.3,5.5C140.4,5.5,140.4,5.5,140.3,5.5l0.1,1.3c0,0.1,0,0.1-0.1,0.1h-1.1c-0.1,0-0.1,0-0.2,0.1l-3.6,3.1
		c0,0-0.1,0.1-0.1,0.2v9.1c0,0.1,0,0.1-0.1,0.1h-1.3c-0.1,0-0.1,0-0.1-0.1V5.6c0-0.1,0-0.1,0.1-0.1h1.3c0.1,0,0.1,0,0.1,0.1v2.5
		c0,0.1,0,0.1,0.1,0l3.1-2.6c0,0,0.1-0.1,0.1-0.1H140.3L140.3,5.5z"/>
	<path fill="#FFFFFF" d="M30.5,38.6c0,0.1,0,0.1,0.1,0.1l1.2,1.4c0,0,0.1,0.1,0.1,0.1H36c0.1,0,0.1,0,0.1-0.1l1.4-1.5
		c0,0,0.1-0.1,0.1-0.2v-7c0-0.1,0-0.1-0.1-0.2L36,29.7c0,0-0.1-0.1-0.1-0.1h-1.4c-0.1,0-0.1,0-0.2,0l-3.7,1.5
		c-0.1,0-0.1,0.1-0.1,0.1V38.6L30.5,38.6z M31.3,41.6c-0.1,0-0.1,0-0.1-0.1l-2-2.3c0-0.1-0.1-0.1-0.1-0.2V22.5c0-0.1,0-0.1,0.1-0.1
		h1.3c0.1,0,0.1,0,0.1,0.1v7.1c0,0.1,0,0.1,0.1,0.1l3.4-1.4c0,0,0.1,0,0.2,0h2.3c0,0,0.1,0,0.1,0.1l2.4,2.6c0,0,0.1,0.1,0.1,0.1v8.1
		c0,0.1,0,0.1-0.1,0.2l-2.2,2.3c0,0-0.1,0.1-0.1,0.1L31.3,41.6L31.3,41.6z"/>
	<path fill="#FFFFFF" d="M48.9,27.7C48.9,27.7,49,27.7,48.9,27.7L49,29c0,0.1,0,0.1-0.1,0.1h-1.1c-0.1,0-0.1,0-0.1,0.1L44,32.2
		c0,0-0.1,0.1-0.1,0.1v9.1c0,0.1,0,0.1-0.1,0.1h-1.3c-0.1,0-0.1,0-0.1-0.1V27.7c0-0.1,0-0.1,0.1-0.1h1.3c0.1,0,0.1,0,0.1,0.1v2.5
		c0,0.1,0,0.1,0.1,0l3.1-2.5c0,0,0.1-0.1,0.2-0.1L48.9,27.7L48.9,27.7z"/>
	<path fill="#FFFFFF" d="M59.7,40C59.7,40,59.7,40,59.7,40l-4.9-8.6c0,0-0.1,0-0.1,0L49.8,40c0,0,0,0.1,0.1,0.1H59.7L59.7,40z
		 M47.3,41.5C47.3,41.5,47.3,41.4,47.3,41.5l7.4-12.9c0,0,0.1,0,0.1,0l7.4,12.8c0,0,0,0.1-0.1,0.1H47.3L47.3,41.5z"/>
	<path fill="#FFFFFF" d="M64.5,38.6c0,0.1,0,0.1,0.1,0.1l1.2,1.4c0,0,0.1,0.1,0.1,0.1H70c0.1,0,0.1,0,0.2-0.1l1.4-1.5
		c0,0,0.1-0.1,0.1-0.2v-7c0-0.1,0-0.1-0.1-0.2l-1.6-1.7c0,0-0.1-0.1-0.1-0.1h-1.4c-0.1,0-0.1,0-0.1,0l-3.7,1.5
		c-0.1,0-0.1,0.1-0.1,0.1L64.5,38.6L64.5,38.6z M65.2,41.6c-0.1,0-0.1,0-0.2-0.1l-1.9-2.3c0-0.1-0.1-0.1-0.1-0.2V22.5
		c0-0.1,0-0.1,0.1-0.1h1.3c0.1,0,0.1,0,0.1,0.1v7.1c0,0.1,0,0.1,0.1,0.1l3.4-1.4c0,0,0.1,0,0.2,0h2.3c0,0,0.1,0,0.1,0.1l2.4,2.6
		c0,0,0.1,0.1,0.1,0.1v8.1c0,0.1,0,0.1-0.1,0.2l-2.2,2.3c0,0-0.1,0.1-0.2,0.1L65.2,41.6L65.2,41.6z"/>
	<path fill="#FFFFFF" d="M86,40C86.1,40,86.1,40,86,40l-4.9-8.6c0,0-0.1,0-0.1,0L76.1,40c0,0,0,0.1,0.1,0.1H86L86,40z M73.7,41.5
		C73.6,41.5,73.6,41.4,73.7,41.5L81,28.6c0,0,0,0,0.1,0l7.4,12.8c0,0,0,0.1-0.1,0.1H73.7L73.7,41.5z"/>
	<path fill="#FFFFFF" d="M101.3,29.8c0,0,0.1,0.1,0.1,0.2v11.3c0,0.1,0,0.1-0.1,0.1H100c-0.1,0-0.1,0-0.1-0.1V30.5
		c0-0.1,0-0.1-0.1-0.2l-1.6-1.7c0-0.1-0.1-0.1-0.2-0.1h-1.9c-0.1,0-0.1,0-0.1,0.1l-3.9,2c0,0,0,0-0.1,0l0,0c0,0,0,0,0,0c0,0,0,0,0,0
		l0,0c0,0-0.1,0.1-0.1,0.1v10.5c0,0.1,0,0.1-0.1,0.1h-1.3c-0.1,0-0.1,0-0.1-0.1v-14c0-0.1,0-0.1,0.1-0.1h1.3c0.1,0,0.1,0,0.1,0.1V29
		c0,0,0,0.1,0.1,0.1l3.7-1.9c0,0,0.1-0.1,0.2-0.1h2.9c0.1,0,0.1,0,0.2,0.1L101.3,29.8L101.3,29.8z"/>
	<path fill="#FFFFFF" d="M107.4,29C107.4,29,107.3,29,107.4,29l-0.1,9.3c0,0.1,0,0.1,0.1,0.2l1.5,1.6c0,0.1,0.1,0.1,0.1,0.1h1.4
		c0.1,0,0.1,0,0.1,0.1v1.3c0,0.1,0,0.1-0.1,0.1h-2c-0.1,0-0.1,0-0.1-0.1l-2.3-2.5c0,0-0.1-0.1-0.1-0.2v-9.8c0-0.1,0-0.1-0.1-0.1
		h-2.3c-0.1,0-0.1,0-0.1-0.1v-1.3c0,0,0-0.1,0.1-0.1h2.3c0.1,0,0.1,0,0.1-0.1v-3.3c0-0.1,0-0.1,0.1-0.1h1.3c0.1,0,0.1,0,0.1,0.1v3.3
		c0,0.1,0,0.1,0.1,0.1h3.3c0.1,0,0.1,0,0.1,0.1v1.3c0,0.1,0,0.1-0.1,0.1L107.4,29L107.4,29z"/>
</g>
</svg>
