<?xml version="1.0" encoding="utf-8"?>
<!-- Generator: Adobe Illustrator 18.0.0, SVG Export Plug-In . SVG Version: 6.00 Build 0)  -->
<!DOCTYPE svg PUBLIC "-//W3C//DTD SVG 1.1//EN" "http://www.w3.org/Graphics/SVG/1.1/DTD/svg11.dtd">
<svg version="1.1" id="Layer_1" xmlns="http://www.w3.org/2000/svg" xmlns:xlink="http://www.w3.org/1999/xlink" x="0px" y="0px"
	 viewBox="0 0 175.2 294.2" enable-background="new 0 0 175.2 294.2" xml:space="preserve">
<linearGradient id="SVGID_1_" gradientUnits="userSpaceOnUse" x1="165.6747" y1="170.8874" x2="-0.3253" y2="126.8874">
	<stop  offset="0" style="stop-color:#FFFFFF"/>
	<stop  offset="1" style="stop-color:#000000"/>
</linearGradient>
<path fill="url(#SVGID_1_)" d="M169,76.3l5.8-38.5c2-8-4.9-20.7-13-22L73,6c-8.1-1.3-16.3,4.1-18.3,12L41.1,55.3
	c-1.3,5.1,0.2,10,3.6,13.2l0,0l35.8,38.2c-0.1,0.2-0.2,0.4-0.2,0.6c-0.2,0.9,0.1,1.7,0.8,2.2L55.2,210.9l-0.7-0.1
	c-1.6-0.3-3.2,0.8-3.6,2.4l-1,4c-0.4,1.6,0.5,3.1,2.1,3.4l0.7,0.1l-3.1,12.1l-31.3-5.1c-1.6-0.3-3.3,0.8-3.7,2.4l-3,11.8
	c-0.4,1.6,0.6,3.1,2.2,3.4l3.2,0.5l-2.4,9.2l-3.2-0.5c-1.6-0.3-3.3,0.8-3.7,2.4L0,263.9c-0.4,1.6,5.3,8,7,8.3l31.3,5.1l-7.4,5.7
	c-0.4,1.6,5.3,7.9,6.9,8.1l18.8,3.1c1.6,0.3,3.3-0.8,3.7-2.4l17.1-67l0.7,0.1c1.6,0.3,3.2-0.8,3.6-2.4l1-4c0.4-1.6-0.5-3.1-2.1-3.4
	l-0.7-0.1l25.9-101.4c0.8-0.2,1.6-0.9,1.8-1.8c0.1-0.2,0.1-0.4,0.1-0.6l51.6-23.8l0,0C163.9,85.4,167.7,81.4,169,76.3z M151,49.8
	c-1.6,6.5-8.3,10.8-14.9,9.8l-56.7-9.3c-6.6-1.1-10.5-7.2-8.9-13.7c1.6-6.5,8.3-10.8,14.9-9.8l56.7,9.3
	C148.7,37.3,152.7,43.4,151,49.8z"/>
<path fill="#F6F6F6" d="M164.3,70.4l5.8-38.5c2-8-2.9-15.5-11-16.9L68.3,0.2c-8.1-1.3-16.3,4.1-18.3,12L36.5,49.5
	c-1.3,5.1,0.2,10,3.6,13.2l0,0l35.8,38.2c-0.1,0.2-0.2,0.4-0.2,0.6c-0.2,0.9,0.1,1.7,0.8,2.2L50.5,205l-0.7-0.1
	c-1.6-0.3-3.2,0.8-3.6,2.4l-1,4c-0.4,1.6,0.5,3.1,2.1,3.4l0.7,0.1L44.9,227l-31.3-5.1c-1.6-0.3-3.3,0.8-3.7,2.4l-3,11.8
	c-0.4,1.6,0.6,3.1,2.2,3.4l3.2,0.5l-2.4,9.2l-3.2-0.5c-1.6-0.3-3.3,0.8-3.7,2.4l-3,11.8c-0.4,1.6,0.6,3.1,2.2,3.4l31.3,5.1
	l-2.7,10.4c-0.4,1.6,0.6,3.1,2.2,3.4l18.8,3.1c1.6,0.3,3.3-0.8,3.7-2.4l17.1-67l0.7,0.1c1.6,0.3,3.2-0.8,3.6-2.4l1-4
	c0.4-1.6-0.5-3.1-2.1-3.4l-0.7-0.1L101,107.7c0.8-0.2,1.6-0.9,1.8-1.8c0.1-0.2,0.1-0.4,0.1-0.6l51.6-23.8l0,0
	C159.2,79.6,163,75.5,164.3,70.4z M146.4,44c-1.6,6.5-8.3,10.8-14.9,9.8l-56.7-9.3c-6.6-1.1-10.5-7.2-8.9-13.7
	c1.6-6.5,8.3-10.8,14.9-9.8l56.7,9.3C144,31.4,148,37.5,146.4,44z"/>
<polygon fill="none" stroke="#DADADA" stroke-width="3" stroke-miterlimit="10" points="81.2,82.3 98.1,64.8 107.6,87.4 "/>
</svg>
